<svg width="453" height="292" viewBox="0 0 453 292" fill="none" xmlns="http://www.w3.org/2000/svg">
<g clip-path="url(#clip0_77_117)">
<rect width="453" height="292" rx="10" fill="black"/>
<path fill-rule="evenodd" clip-rule="evenodd" d="M462.406 229.917C484.813 279.024 463.169 336.999 414.061 359.406C364.954 381.813 306.98 360.169 284.572 311.061C262.165 261.954 283.809 203.98 332.917 181.572C382.024 159.165 439.999 180.809 462.406 229.917ZM352.8 258.132C357.455 268.333 352.959 280.376 342.757 285.031C332.556 289.685 320.513 285.189 315.859 274.988C311.204 264.787 315.7 252.744 325.901 248.089C336.102 243.435 348.145 247.931 352.8 258.132ZM403.754 257.199C413.955 252.544 418.451 240.501 413.796 230.3C409.142 220.099 397.099 215.603 386.898 220.257C376.697 224.912 372.2 236.955 376.855 247.156C381.51 257.357 393.553 261.853 403.754 257.199Z" fill="url(#paint0_linear_77_117)"/>
</g>
<defs>
<linearGradient id="paint0_linear_77_117" x1="332.917" y1="181.572" x2="414.061" y2="359.406" gradientUnits="userSpaceOnUse">
<stop stop-color="#FFB72C"/>
<stop offset="1" stop-color="#F9ECD3"/>
</linearGradient>
<clipPath id="clip0_77_117">
<rect width="453" height="292" rx="10" fill="white"/>
</clipPath>
</defs>
</svg>
